# xmcd
#
# Track frame offsets:
#	150
#	11280
#	23047
#	35533
#	47295
#	59386
#	72592
#	87414
#	103324
#	119445
#
# Disc length: 1775 seconds
#
# Revision: 1
# Processed by: cddbd v1.5.2PL0 Copyright (c) Steve Scherf et al.
# Submitted via: FairStars CD Ripper 1.80
#
DISCID=8006ed0a
DTITLE=Various Artist - Love Country Disc 1
DYEAR=2007
DGENRE=Country
TTITLE0=Jack Greene - There Goes My Everything
TTITLE1=Lynn Anderson - How Can I Unlove You
TTITLE2=Faron Young - It's Four in The Morning
TTITLE3=Donna Fargo - The Happiest Girl In The Whole USA
TTITLE4=Freddy Fender - Before The Next Teardrop Falls
TTITLE5=Lynn Anderson - Keep Me In Mind
TTITLE6=Jeanne Pruett - Satin Sheets
TTITLE7=B.J. Thomas - Another Somebody Done Somebody Wrong Song
TTITLE8=T.G. Sheppard - I Loved 'Em Every One
TTITLE9=Moe Bandy - I Cheated Me Right Out Of You
EXTD=
EXTT0=
EXTT1=
EXTT2=
EXTT3=
EXTT4=
EXTT5=
EXTT6=
EXTT7=
EXTT8=
EXTT9=
PLAYORDER=
